<?xml version="1.0" encoding="UTF-8"?>
<!-- Generated by Pixelmator Pro 3.6.18 -->
<svg width="1024" height="1024" viewBox="0 0 1024 1024" xmlns="http://www.w3.org/2000/svg">
    <g id="Icon">
        <g id="Layers">
            <g id="Lower">
                <linearGradient id="linearGradient1" x1="460.066174" y1="941.105232" x2="565.197387" y2="941.105232" gradientUnits="userSpaceOnUse">
                    <stop offset="0.00543" stop-color="#007cd3" stop-opacity="1"/>
                    <stop offset="1" stop-color="#025b9a" stop-opacity="1"/>
                </linearGradient>
                <path id="Abgerundetes-Rechteck-Kopie-2" fill="url(#linearGradient1)" fill-rule="evenodd" stroke="none" d="M 564.760071 993.316711 C 535.050659 1014.269104 486.915802 1014.221619 457.247772 993.210693 L 74.680511 722.276184 C 59.725021 711.684692 52.317036 697.787964 52.453262 683.925781 L 52.413197 683.925781 L 52.413197 569.000854 L 184.354446 569.000854 L 457.856201 376.115234 C 487.565552 355.162903 535.700439 355.210327 565.368408 376.221252 L 837.578674 569.000854 L 970.536011 569.000854 L 970.536011 683.925781 L 970.145813 683.925781 C 970.592529 698.087341 963.163025 712.345337 947.86084 723.137085 L 564.760071 993.316711 Z"/>
            </g>
            <g id="Middle">
                <linearGradient id="linearGradient2" x1="454.692449" y1="817.925121" x2="549.853291" y2="817.925121" gradientUnits="userSpaceOnUse">
                    <stop offset="0.00543" stop-color="#1cafff" stop-opacity="1"/>
                    <stop offset="1" stop-color="#0082c9" stop-opacity="1"/>
                </linearGradient>
                <path id="Pfad" fill="url(#linearGradient2)" fill-rule="evenodd" stroke="none" d="M 564.901611 879.108521 C 535.1922 900.060913 487.057343 900.013428 457.389343 879.002563 L 74.822067 608.067993 C 60.068043 597.619141 52.65955 583.953552 52.593445 570.277771 L 52.413197 570.277771 L 52.413197 455.352783 L 183.701813 455.352783 L 457.997772 261.907104 C 487.707092 240.954712 535.842041 241.002197 565.510071 262.013062 L 838.511169 455.352783 L 970.536011 455.352783 L 970.536011 570.277771 L 970.300903 570.277771 C 970.536804 584.254517 963.102783 598.279419 948.002319 608.928833 L 564.901611 879.108521 Z"/>
            </g>
            <g id="Upper">
                <linearGradient id="linearGradient3" x1="461.965705" y1="704.257145" x2="578.711068" y2="704.257145" gradientUnits="userSpaceOnUse">
                    <stop offset="0.00543" stop-color="#99dbff" stop-opacity="1"/>
                    <stop offset="1" stop-color="#62b4e1" stop-opacity="1"/>
                </linearGradient>
                <path id="Abgerundetes-Rechteck-Kopie" fill="url(#linearGradient3)" fill-rule="evenodd" stroke="none" d="M 565.04364 763.16333 C 535.334229 784.115662 487.199341 784.068237 457.531342 763.057312 L 74.964073 492.122803 C 60.117729 481.608582 52.709137 467.837219 52.735081 454.075867 L 52.413197 454.075867 L 52.413197 339.150879 L 184.207748 339.150879 L 458.139771 145.961914 C 487.849152 125.009521 535.98407 125.057007 565.652039 146.067871 L 838.290771 339.150879 L 970.536011 339.150879 L 970.536011 454.075867 L 970.437744 454.075867 C 970.769531 468.137451 963.33728 482.268982 948.144409 492.983704 L 565.04364 763.16333 Z"/>
            </g>
            <linearGradient id="linearGradient4" x1="460.635251" y1="52.666638" x2="550.667829" y2="626.447085" gradientUnits="userSpaceOnUse" gradientTransform="matrix(0.707107 -0.707107 0.707107 0.707107 -90.532572 461.316277)">
                <stop offset="0.00543" stop-color="#1cafff" stop-opacity="1"/>
                <stop offset="1" stop-color="#0082c9" stop-opacity="1"/>
            </linearGradient>
            <path id="Topping" fill="url(#linearGradient4)" fill-rule="evenodd" stroke="none" d="M 457.531342 648.435303 C 487.199341 669.446289 535.334229 669.493652 565.04364 648.541321 L 948.14447 378.361694 C 977.853699 357.409363 977.887329 323.391357 948.21936 302.380371 L 565.652039 31.445923 C 535.98407 10.434998 487.849152 10.387573 458.139771 31.339905 L 75.039032 301.519531 C 45.32962 322.471924 45.296082 356.489868 74.964066 377.500793 Z"/>
        </g>
        <path id="Logo" fill="#ffffff" stroke="none" d="M 719.097778 280.357178 C 717.697693 278.540588 716.326172 276.717896 714.81134 274.911499 C 649.78064 197.496582 497.877502 158.499146 358.98587 179.216003 C 449.265259 191.717651 529.781738 227.045288 570.986511 278.395813 C 574.660217 282.973755 577.870361 287.595886 580.778931 292.232849 C 577.592834 292.613159 573.736572 293.203308 568.700073 294.101074 C 568.700073 294.101074 429.038116 313.611816 240.283417 307.323059 C 235.328598 307.154236 366.077728 329.124023 488.898773 335.299438 C 445.227692 342.801086 310.239624 353.970764 215.285828 354.079651 C 231.627701 357.498291 248.717072 359.839783 266.135803 361.417908 C 360.333862 372.262207 479.413086 383.651428 593.646667 376.428894 C 577.407593 428.486206 516.57605 474.242432 423.27005 495.769958 C 400.185089 501.0896 376.467407 504.616089 352.599365 506.467285 C 423.328094 520.271606 502.34668 519.578796 574.393188 501.03418 C 660.303406 478.915955 717.561157 436.243958 737.25647 387.619995 L 737.277344 387.682495 C 737.330078 387.505371 737.392029 387.314758 737.449524 387.134338 C 738.325256 384.943848 739.147949 382.741455 739.869812 380.532593 C 749.780945 357.336365 780.05603 320.09845 847.384521 337.559387 C 863.956055 341.854858 816.858704 290.571472 719.179443 280.363159 C 719.145752 280.358704 719.126526 280.358093 719.097778 280.357178 Z"/>
    </g>
</svg>
